<svg xmlns="http://www.w3.org/2000/svg" x="0px" y="0px" viewBox="0 0 256 256" enable-background="new 0 0 256 256">
    <g>
        <g>
            <path fill="#000000"
                  d="M124.9,66.7c-3.1,0-7.2,10.3-4.1,19.5c-8.2,0-6.2-19.5-6.2-19.5c-2,1-8.2-1-8.2-1c5.1-1,7.1-4,5.1-6.2C92.1,38,80.9,78.7,86.9,85.1c25.6,27.7,16.4,35.9,16.4,35.9c6.2,16.4,42.1,51.3,42.1,51.3c17.4-28.7,1-48.2-3.1-51.3c-4.1-3.1-5.1,6.2-5.1,6.2c-3.1-8.2-14.4-6.2-14.4-6.2c6.2-15.4,23.6-12.3,23.6-12.3s-1,2-4.1,2c-3.1,0,10.3,5.1,13.3,7.2c3.1,2,1-4.1,1-4.1c8.2,7.2,7.2,17.4,9.2,22.6c2,5.1,4.1-1,4.1-1c3.1,10.3-1,20.5,0,24.6c1,4.1,5.1,1,5.1,1c-2,19.5-9.2,29.7-9.2,29.7c46.2,39,80,27.7,80,27.7c-6.2,5.1-26.7,19.5-38,13.3c-11.3-6.2-26.7,3.1-26.7,3.1c-6.2-9.2-26.7-18.5-40-11.3C67.8,263.2,35.7,200,31.6,194.9c-4.1-5.1-7.2,7.2-7.2,7.2c-18.5-17.4-2-40-3.1-46.2c-1-6.2-10.3,5.1-10.3,5.1c-7.2-18.5,23.6-42.1,23.6-47.2c0-5.1-10.3,0-10.3,0c10.3-19.5,42.1-18.5,42.1-18.5s-2-11.3-5.1-15.4S56.2,83,56.2,83c-4.1-12.3,3.1-17.4,9.2-27.7c3.1-6.2-7.2-4.1-7.2-4.1c9.2-13.3,20.5-7.4,26.7-14.6c3.1-3.1-4.1-5.6-4.1-5.6c8.2-4.4,16.4,4.9,23.6-0.8c6.2-4.9-12.4-10.7-12.4-10.7c36.9-1,28.7,15.4,49.2,30.8c0,4.1,1,11.3,1,11.3c12.3,22.6-2,23.6-2,23.6C146.4,76.9,128,66.7,124.9,66.7z M77.7,132.3c-69.8,26.7,2,96.4,45.1,68.7c0-6.2-14.4-7.2-14.4-7.2c-2-26.7-24.6-27.7-24.6-27.7C88,150.8,78.5,130.7,77.7,132.3z"/>
        </g>
    </g>
</svg>